<svg width="198" height="39" viewBox="0 0 198 39" fill="none" xmlns="http://www.w3.org/2000/svg">
<path d="M4.65625 2.92188C4.78125 2.89063 4.89062 2.84375 4.98438 2.78125C5.07812 2.71875 5.1875 2.6875 5.3125 2.6875C5.40625 2.71875 5.46875 2.78125 5.5 2.875C5.5625 2.96875 5.64062 3.04687 5.73438 3.10938C5.82812 3.04687 5.90625 2.98438 5.96875 2.92188C6.0625 2.85937 6.15625 2.8125 6.25 2.78125C6.5625 2.875 6.73438 3.03125 6.76562 3.25C6.92188 3.3125 7.0625 3.39062 7.1875 3.48438C7.3125 3.54688 7.45312 3.59375 7.60938 3.625C7.67188 3.75 7.75 3.84375 7.84375 3.90625C7.9375 3.96875 8.04688 4.0625 8.17188 4.1875C8.48438 4.25 8.89062 4.42188 9.39062 4.70312C9.92188 4.98438 10.3438 5.20312 10.6562 5.35938C10.9688 5.51562 11.2812 5.67188 11.5938 5.82812C11.9062 5.98438 12.2031 6.15625 12.4844 6.34375C12.7656 6.5 13.0469 6.6875 13.3281 6.90625C13.6094 7.09375 13.9062 7.25 14.2188 7.375C14.5 7.71875 14.8594 7.9375 15.2969 8.03125C15.7344 8.125 16.125 8.29688 16.4688 8.54688C16.75 8.70312 17.0156 8.875 17.2656 9.0625C17.5156 9.21875 17.7656 9.375 18.0156 9.53125C18.1094 9.6875 18.2188 9.8125 18.3438 9.90625C18.5 10 18.6406 10.125 18.7656 10.2812C19.3906 10.625 19.75 10.8906 19.8438 11.0781C19.9375 11.1406 20.0781 11.2344 20.2656 11.3594C20.4531 11.4844 20.6406 11.625 20.8281 11.7812C21.0156 11.9062 21.1875 12.0469 21.3438 12.2031C21.5 12.3281 21.5938 12.4531 21.625 12.5781C21.5 12.8594 21.4375 13.0938 21.4375 13.2812C21.4375 13.4375 21.375 13.5781 21.25 13.7031C21.4375 13.9531 21.5312 14.1875 21.5312 14.4062C21.375 14.7812 21.1094 15.0938 20.7344 15.3438C20.6406 15.5938 20.4844 15.7969 20.2656 15.9531C20.0781 16.0781 19.9531 16.2656 19.8906 16.5156C19.6406 16.6719 19.4844 16.7969 19.4219 16.8906C19.3906 16.9844 19.3438 17.0781 19.2812 17.1719C18.6875 17.7969 18.125 18.3438 17.5938 18.8125C17.0938 19.25 16.625 19.7344 16.1875 20.2656C15.875 20.4219 15.6094 20.625 15.3906 20.875C15.1719 21.0938 14.9688 21.3438 14.7812 21.625C14.5312 21.875 14.2812 22.125 14.0312 22.375C13.8125 22.5938 13.5781 22.8125 13.3281 23.0312C13.2656 23.1562 13.1562 23.2656 13 23.3594C12.875 23.4219 12.7812 23.5312 12.7188 23.6875C12.375 23.8438 12.0938 24.0625 11.875 24.3438C11.6562 24.625 11.3906 24.8594 11.0781 25.0469L10.75 25.5156C10.6562 25.5781 10.5156 25.6875 10.3281 25.8438C10.1719 25.9688 10 26.125 9.8125 26.3125C9.65625 26.4688 9.51562 26.625 9.39062 26.7812C9.26562 26.9375 9.1875 27.0625 9.15625 27.1562C9.0625 27.1875 8.90625 27.2812 8.6875 27.4375C8.5 27.5938 8.29688 27.7656 8.07812 27.9531C7.89062 28.1406 7.70312 28.3281 7.51562 28.5156C7.35938 28.7031 7.26562 28.8281 7.23438 28.8906L6.76562 29.2188C6.79688 30.0625 6.8125 30.9219 6.8125 31.7969C6.84375 32.6406 6.85938 33.4844 6.85938 34.3281V35.9219L6.53125 36.3438C6.375 36.3438 6.25 36.3125 6.15625 36.25C6.0625 36.1875 5.95312 36.1562 5.82812 36.1562C5.70312 36.1562 5.57812 36.2188 5.45312 36.3438C5.35938 36.4688 5.26562 36.5625 5.17188 36.625C4.95312 36.6562 4.76562 36.7188 4.60938 36.8125C4.48438 36.875 4.34375 36.9375 4.1875 37C4 36.9062 3.8125 36.8594 3.625 36.8594C3.21875 36.9531 3.01562 36.9688 3.01562 36.9062C3.04688 36.8438 2.98438 36.8125 2.82812 36.8125C2.57812 37.0625 2.42188 37.1875 2.35938 37.1875C2.23438 37.1875 2.10938 37.2031 1.98438 37.2344C1.89062 37.2656 1.78125 37.2812 1.65625 37.2812C1.53125 37.0312 1.42188 36.7812 1.32812 36.5312C1.26562 36.25 1.125 35.9844 0.90625 35.7344C1 35.4219 0.984375 35.2031 0.859375 35.0781C1.04688 34.7344 1.125 34.3438 1.09375 33.9062C1.0625 33.4688 1.04688 33.0625 1.04688 32.6875C1.04688 32.4688 1.04688 32.2656 1.04688 32.0781C1.07812 31.8594 1.09375 31.6562 1.09375 31.4688C1.09375 31.0938 1.0625 30.7188 1 30.3438C0.9375 29.9375 0.90625 29.5312 0.90625 29.125C0.90625 28.1875 0.9375 27.25 1 26.3125C1.0625 25.3438 1.09375 24.3906 1.09375 23.4531C1.09375 22.9219 1.0625 22.375 1 21.8125C0.96875 21.25 0.953125 20.7031 0.953125 20.1719C0.953125 19.8281 0.96875 19.5156 1 19.2344C1.03125 18.9219 1.0625 18.625 1.09375 18.3438C1.09375 16.9062 1.10938 15.5312 1.14062 14.2188C1.20312 12.875 1.23438 11.5469 1.23438 10.2344C1.23438 9.79688 1.21875 9.39062 1.1875 9.01562C1.1875 8.60938 1.1875 8.1875 1.1875 7.75C1.1875 7.53125 1.20312 7.3125 1.23438 7.09375C1.26562 6.875 1.28125 6.65625 1.28125 6.4375C1.375 5.46875 1.42188 4.5 1.42188 3.53125L1.375 2.78125C1.5 2.59375 1.6875 2.5 1.9375 2.5C2.28125 2.5 2.54688 2.60938 2.73438 2.82812C2.95312 2.79688 3.15625 2.76562 3.34375 2.73438C3.5625 2.67187 3.76562 2.64062 3.95312 2.64062C4.23438 2.64062 4.46875 2.73438 4.65625 2.92188ZM7.42188 10.375C7.42188 10.5312 7.40625 10.6562 7.375 10.75C7.34375 10.8125 7.3125 10.875 7.28125 10.9375C7.28125 11.0312 7.28125 11.1406 7.28125 11.2656C7.3125 11.3594 7.32812 11.4688 7.32812 11.5938C7.32812 12.3125 7.3125 13.0312 7.28125 13.75C7.28125 14.4375 7.28125 15.125 7.28125 15.8125L7.1875 18.2969C7.1875 18.4531 7.20312 18.625 7.23438 18.8125C7.26562 19 7.28125 19.1719 7.28125 19.3281C7.28125 19.4844 7.26562 19.6406 7.23438 19.7969C7.20312 19.9531 7.1875 20.1094 7.1875 20.2656C7.1875 20.6719 7.23438 21.0781 7.32812 21.4844C7.48438 21.4219 7.59375 21.3281 7.65625 21.2031C7.71875 21.0469 7.79688 20.9219 7.89062 20.8281C8.60938 20.1719 9.28125 19.4844 9.90625 18.7656C10.5312 18.0469 11.1719 17.3281 11.8281 16.6094C12.3906 16.0156 12.875 15.5312 13.2812 15.1562C13.6875 14.7812 14 14.3281 14.2188 13.7969C13.6875 13.4531 13.1406 13.1094 12.5781 12.7656C12.0156 12.3906 11.4219 12.0781 10.7969 11.8281C10.7656 11.7656 10.6719 11.6875 10.5156 11.5938C10.3906 11.5 10.25 11.4219 10.0938 11.3594C9.9375 11.2656 9.78125 11.1875 9.625 11.125C9.46875 11.0625 9.35938 11.0312 9.29688 11.0312C9.01562 10.7812 8.71875 10.625 8.40625 10.5625C8.1875 10.5625 8 10.5312 7.84375 10.4688C7.6875 10.375 7.57812 10.2969 7.51562 10.2344L7.42188 10.375ZM35.9406 24.7188C36.0031 24.875 36.2219 25.2031 36.5969 25.7031C37.0031 26.2031 37.4562 26.75 37.9562 27.3438C38.4562 27.9375 38.925 28.5156 39.3625 29.0781C39.8312 29.6094 40.1594 30 40.3469 30.25C40.6906 30.6875 41.0187 31.125 41.3312 31.5625C41.675 31.9688 41.9875 32.4062 42.2687 32.875L43.1125 34.2812C43.3625 34.5938 43.5812 34.8594 43.7687 35.0781C43.9875 35.2969 44.1594 35.5938 44.2844 35.9688C44.3469 36.2188 44.3781 36.3906 44.3781 36.4844C44.3781 36.7031 44.3 36.8594 44.1437 36.9531C43.8937 36.9531 43.7531 36.9844 43.7219 37.0469C43.7219 37.1406 43.6594 37.2188 43.5344 37.2812C43.4094 37.3438 43.2062 37.375 42.925 37.375C42.675 37.4062 42.4719 37.4219 42.3156 37.4219C42.0344 37.4219 41.675 37.4062 41.2375 37.375C40.8312 37.375 40.5031 37.4219 40.2531 37.5156C40.1906 37.5469 40.0969 37.5938 39.9719 37.6562C39.8469 37.7188 39.7531 37.75 39.6906 37.75C39.4406 37.75 39.2531 37.7031 39.1281 37.6094C39.0344 37.5469 38.8937 37.5 38.7062 37.4688C38.4562 37.1875 38.2375 36.9062 38.05 36.625C37.8937 36.3125 37.7062 36 37.4875 35.6875C37.2687 35.4688 37.05 35.2812 36.8312 35.125C36.6125 34.9375 36.425 34.7344 36.2687 34.5156C35.8 33.8281 35.3156 33.1562 34.8156 32.5C34.3156 31.8438 33.8 31.2031 33.2687 30.5781C33.0187 30.2344 32.7531 29.9219 32.4719 29.6406C32.1906 29.3594 31.925 29.0469 31.675 28.7031C31.425 28.3906 31.1906 28.0625 30.9719 27.7188C30.7531 27.3438 30.5344 26.9844 30.3156 26.6406C30.1281 26.3594 29.8781 26 29.5656 25.5625C29.2531 25.0938 28.9094 24.6406 28.5344 24.2031C28.1594 23.7344 27.7844 23.2969 27.4094 22.8906C27.0344 22.4844 26.7219 22.1719 26.4719 21.9531C26.4406 21.7656 26.3625 21.625 26.2375 21.5312C26.1125 21.4062 25.9719 21.2969 25.8156 21.2031C25.7531 21.0469 25.6906 20.9062 25.6281 20.7812C25.5344 20.625 25.4875 20.4688 25.4875 20.3125C25.4875 20.0938 25.5344 19.8906 25.6281 19.7031C25.6906 19.5781 25.7375 19.4688 25.7687 19.375C25.7687 19.25 25.8 19.125 25.8625 19C26.0187 18.6562 26.2219 18.3281 26.4719 18.0156C26.7531 17.6719 26.9719 17.3125 27.1281 16.9375C27.1906 16.8438 27.2219 16.75 27.2219 16.6562C27.2219 16.5312 27.2531 16.4219 27.3156 16.3281C27.3781 16.0781 27.5031 15.875 27.6906 15.7188C27.9094 15.5312 28.0812 15.3281 28.2062 15.1094C28.3625 14.8594 28.5031 14.6094 28.6281 14.3594C28.7844 14.0781 28.9406 13.7812 29.0969 13.4688C29.5656 12.6875 30.05 11.9375 30.55 11.2188C31.0812 10.4688 31.6125 9.71875 32.1437 8.96875C32.55 8.34375 32.9406 7.75 33.3156 7.1875C33.7219 6.59375 34.1281 6 34.5344 5.40625C34.7531 5.125 34.9875 4.79688 35.2375 4.42188C35.4875 4.04688 35.7531 3.67188 36.0344 3.29688C36.3469 2.92188 36.6594 2.57812 36.9719 2.26562C37.2844 1.95313 37.5969 1.70312 37.9094 1.51562C38.3781 1.48438 38.6906 1.59375 38.8469 1.84375C39.0031 2.0625 39.2375 2.17188 39.55 2.17188C39.9562 2.26562 40.2219 2.39062 40.3469 2.54688C40.4719 2.70313 40.6125 2.85937 40.7687 3.01562C41.2062 3.01562 41.55 3.09375 41.8 3.25C42.0812 3.40625 42.3469 3.64063 42.5969 3.95312C42.5031 4.29688 42.3625 4.60938 42.175 4.89062C41.9875 5.14062 41.8156 5.40625 41.6594 5.6875C41.4094 5.8125 41.2219 5.98438 41.0969 6.20312C41.0031 6.42188 40.8469 6.59375 40.6281 6.71875C40.3156 7.25 39.9875 7.76562 39.6437 8.26562C39.3 8.73438 38.9562 9.20312 38.6125 9.67188C38.425 9.95312 38.2219 10.2031 38.0031 10.4219C37.8156 10.6406 37.6437 10.875 37.4875 11.125C37.425 11.2188 37.3625 11.3281 37.3 11.4531C37.2687 11.5469 37.2219 11.6406 37.1594 11.7344C36.7844 12.3281 36.3781 12.8906 35.9406 13.4219C35.5031 13.9219 35.0969 14.4844 34.7219 15.1094C34.5969 15.3281 34.4875 15.5625 34.3937 15.8125C34.3312 16.0312 34.2375 16.25 34.1125 16.4688C33.9875 16.6562 33.8 16.9062 33.55 17.2188C33.3312 17.5312 33.1125 17.875 32.8937 18.25C32.675 18.5938 32.4719 18.9375 32.2844 19.2812C32.1281 19.5938 32.05 19.8594 32.05 20.0781C32.0812 20.2344 32.2687 20.5469 32.6125 21.0156C32.9875 21.4531 33.3937 21.9375 33.8312 22.4688C34.3 22.9688 34.7375 23.4531 35.1437 23.9219C35.55 24.3594 35.8156 24.625 35.9406 24.7188ZM39.0344 16.1875C39.2531 16.6562 39.4875 17.0625 39.7375 17.4062C39.8312 17.5312 39.9406 17.6406 40.0656 17.7344C40.1906 17.8281 40.2844 17.9531 40.3469 18.1094C40.4094 18.1719 40.4719 18.3125 40.5344 18.5312C40.5969 18.7188 40.6594 18.8594 40.7219 18.9531C40.8156 19.2031 41.0031 19.4844 41.2844 19.7969C41.5656 20.1094 41.7062 20.3906 41.7062 20.6406C41.7062 20.7969 41.675 20.9688 41.6125 21.1562C41.55 21.3438 41.5031 21.5156 41.4719 21.6719C41.4406 21.8594 41.425 22.0625 41.425 22.2812C41.425 22.4688 41.3625 22.6406 41.2375 22.7969C41.0812 22.9531 40.9094 23.0469 40.7219 23.0781C40.5344 23.1094 40.3625 23.1875 40.2062 23.3125C40.1437 23.375 40.05 23.4844 39.925 23.6406C39.8 23.7969 39.675 23.9688 39.55 24.1562C39.425 24.3438 39.3 24.5312 39.175 24.7188C39.0812 24.875 39.0344 25 39.0344 25.0938C38.6594 25.125 38.4094 25.1406 38.2844 25.1406C38.1906 25.1094 38.0812 25.1094 37.9562 25.1406C37.8 24.9844 37.6281 24.8594 37.4406 24.7656C37.2844 24.6406 37.0812 24.5312 36.8312 24.4375C36.7687 24.1875 36.6281 23.9062 36.4094 23.5938C36.1906 23.25 36.0031 22.9688 35.8469 22.75L35.5187 22.3281C35.05 21.6719 34.6125 21.0469 34.2062 20.4531C33.8312 19.8281 33.55 19.1406 33.3625 18.3906C33.9562 17.9531 34.4094 17.625 34.7219 17.4062C35.0656 17.1875 35.425 16.9844 35.8 16.7969C36.175 16.6094 36.5344 16.4375 36.8781 16.2812C37.2531 16.0938 37.5969 15.875 37.9094 15.625C38.1594 15.625 38.3312 15.6406 38.425 15.6719C38.5187 15.7031 38.5812 15.7344 38.6125 15.7656C38.6437 15.7969 38.675 15.8594 38.7062 15.9531C38.7687 16.0156 38.8781 16.0938 39.0344 16.1875ZM58.9281 24.7188C58.9906 24.875 59.2094 25.2031 59.5844 25.7031C59.9906 26.2031 60.4437 26.75 60.9437 27.3438C61.4437 27.9375 61.9125 28.5156 62.35 29.0781C62.8187 29.6094 63.1469 30 63.3344 30.25C63.6781 30.6875 64.0062 31.125 64.3187 31.5625C64.6625 31.9688 64.975 32.4062 65.2562 32.875L66.1 34.2812C66.35 34.5938 66.5687 34.8594 66.7562 35.0781C66.975 35.2969 67.1469 35.5938 67.2719 35.9688C67.3344 36.2188 67.3656 36.3906 67.3656 36.4844C67.3656 36.7031 67.2875 36.8594 67.1312 36.9531C66.8812 36.9531 66.7406 36.9844 66.7094 37.0469C66.7094 37.1406 66.6469 37.2188 66.5219 37.2812C66.3969 37.3438 66.1937 37.375 65.9125 37.375C65.6625 37.4062 65.4594 37.4219 65.3031 37.4219C65.0219 37.4219 64.6625 37.4062 64.225 37.375C63.8187 37.375 63.4906 37.4219 63.2406 37.5156C63.1781 37.5469 63.0844 37.5938 62.9594 37.6562C62.8344 37.7188 62.7406 37.75 62.6781 37.75C62.4281 37.75 62.2406 37.7031 62.1156 37.6094C62.0219 37.5469 61.8812 37.5 61.6937 37.4688C61.4437 37.1875 61.225 36.9062 61.0375 36.625C60.8812 36.3125 60.6937 36 60.475 35.6875C60.2562 35.4688 60.0375 35.2812 59.8187 35.125C59.6 34.9375 59.4125 34.7344 59.2562 34.5156C58.7875 33.8281 58.3031 33.1562 57.8031 32.5C57.3031 31.8438 56.7875 31.2031 56.2562 30.5781C56.0062 30.2344 55.7406 29.9219 55.4594 29.6406C55.1781 29.3594 54.9125 29.0469 54.6625 28.7031C54.4125 28.3906 54.1781 28.0625 53.9594 27.7188C53.7406 27.3438 53.5219 26.9844 53.3031 26.6406C53.1156 26.3594 52.8656 26 52.5531 25.5625C52.2406 25.0938 51.8969 24.6406 51.5219 24.2031C51.1469 23.7344 50.7719 23.2969 50.3969 22.8906C50.0219 22.4844 49.7094 22.1719 49.4594 21.9531C49.4281 21.7656 49.35 21.625 49.225 21.5312C49.1 21.4062 48.9594 21.2969 48.8031 21.2031C48.7406 21.0469 48.6781 20.9062 48.6156 20.7812C48.5219 20.625 48.475 20.4688 48.475 20.3125C48.475 20.0938 48.5219 19.8906 48.6156 19.7031C48.6781 19.5781 48.725 19.4688 48.7562 19.375C48.7562 19.25 48.7875 19.125 48.85 19C49.0062 18.6562 49.2094 18.3281 49.4594 18.0156C49.7406 17.6719 49.9594 17.3125 50.1156 16.9375C50.1781 16.8438 50.2094 16.75 50.2094 16.6562C50.2094 16.5312 50.2406 16.4219 50.3031 16.3281C50.3656 16.0781 50.4906 15.875 50.6781 15.7188C50.8969 15.5312 51.0687 15.3281 51.1937 15.1094C51.35 14.8594 51.4906 14.6094 51.6156 14.3594C51.7719 14.0781 51.9281 13.7812 52.0844 13.4688C52.5531 12.6875 53.0375 11.9375 53.5375 11.2188C54.0687 10.4688 54.6 9.71875 55.1312 8.96875C55.5375 8.34375 55.9281 7.75 56.3031 7.1875C56.7094 6.59375 57.1156 6 57.5219 5.40625C57.7406 5.125 57.975 4.79688 58.225 4.42188C58.475 4.04688 58.7406 3.67188 59.0219 3.29688C59.3344 2.92188 59.6469 2.57812 59.9594 2.26562C60.2719 1.95313 60.5844 1.70312 60.8969 1.51562C61.3656 1.48438 61.6781 1.59375 61.8344 1.84375C61.9906 2.0625 62.225 2.17188 62.5375 2.17188C62.9437 2.26562 63.2094 2.39062 63.3344 2.54688C63.4594 2.70313 63.6 2.85937 63.7562 3.01562C64.1937 3.01562 64.5375 3.09375 64.7875 3.25C65.0687 3.40625 65.3344 3.64063 65.5844 3.95312C65.4906 4.29688 65.35 4.60938 65.1625 4.89062C64.975 5.14062 64.8031 5.40625 64.6469 5.6875C64.3969 5.8125 64.2094 5.98438 64.0844 6.20312C63.9906 6.42188 63.8344 6.59375 63.6156 6.71875C63.3031 7.25 62.975 7.76562 62.6312 8.26562C62.2875 8.73438 61.9437 9.20312 61.6 9.67188C61.4125 9.95312 61.2094 10.2031 60.9906 10.4219C60.8031 10.6406 60.6312 10.875 60.475 11.125C60.4125 11.2188 60.35 11.3281 60.2875 11.4531C60.2562 11.5469 60.2094 11.6406 60.1469 11.7344C59.7719 12.3281 59.3656 12.8906 58.9281 13.4219C58.4906 13.9219 58.0844 14.4844 57.7094 15.1094C57.5844 15.3281 57.475 15.5625 57.3812 15.8125C57.3187 16.0312 57.225 16.25 57.1 16.4688C56.975 16.6562 56.7875 16.9062 56.5375 17.2188C56.3187 17.5312 56.1 17.875 55.8812 18.25C55.6625 18.5938 55.4594 18.9375 55.2719 19.2812C55.1156 19.5938 55.0375 19.8594 55.0375 20.0781C55.0687 20.2344 55.2562 20.5469 55.6 21.0156C55.975 21.4531 56.3812 21.9375 56.8187 22.4688C57.2875 22.9688 57.725 23.4531 58.1312 23.9219C58.5375 24.3594 58.8031 24.625 58.9281 24.7188ZM62.0219 16.1875C62.2406 16.6562 62.475 17.0625 62.725 17.4062C62.8187 17.5312 62.9281 17.6406 63.0531 17.7344C63.1781 17.8281 63.2719 17.9531 63.3344 18.1094C63.3969 18.1719 63.4594 18.3125 63.5219 18.5312C63.5844 18.7188 63.6469 18.8594 63.7094 18.9531C63.8031 19.2031 63.9906 19.4844 64.2719 19.7969C64.5531 20.1094 64.6937 20.3906 64.6937 20.6406C64.6937 20.7969 64.6625 20.9688 64.6 21.1562C64.5375 21.3438 64.4906 21.5156 64.4594 21.6719C64.4281 21.8594 64.4125 22.0625 64.4125 22.2812C64.4125 22.4688 64.35 22.6406 64.225 22.7969C64.0687 22.9531 63.8969 23.0469 63.7094 23.0781C63.5219 23.1094 63.35 23.1875 63.1937 23.3125C63.1312 23.375 63.0375 23.4844 62.9125 23.6406C62.7875 23.7969 62.6625 23.9688 62.5375 24.1562C62.4125 24.3438 62.2875 24.5312 62.1625 24.7188C62.0687 24.875 62.0219 25 62.0219 25.0938C61.6469 25.125 61.3969 25.1406 61.2719 25.1406C61.1781 25.1094 61.0687 25.1094 60.9437 25.1406C60.7875 24.9844 60.6156 24.8594 60.4281 24.7656C60.2719 24.6406 60.0687 24.5312 59.8187 24.4375C59.7562 24.1875 59.6156 23.9062 59.3969 23.5938C59.1781 23.25 58.9906 22.9688 58.8344 22.75L58.5062 22.3281C58.0375 21.6719 57.6 21.0469 57.1937 20.4531C56.8187 19.8281 56.5375 19.1406 56.35 18.3906C56.9437 17.9531 57.3969 17.625 57.7094 17.4062C58.0531 17.1875 58.4125 16.9844 58.7875 16.7969C59.1625 16.6094 59.5219 16.4375 59.8656 16.2812C60.2406 16.0938 60.5844 15.875 60.8969 15.625C61.1469 15.625 61.3187 15.6406 61.4125 15.6719C61.5062 15.7031 61.5687 15.7344 61.6 15.7656C61.6312 15.7969 61.6625 15.8594 61.6937 15.9531C61.7562 16.0156 61.8656 16.0938 62.0219 16.1875ZM95.8844 32.5C95.8531 32.9688 95.9469 33.3281 96.1656 33.5781C96.4156 33.7969 96.6188 34.0781 96.775 34.4219C96.7125 34.8594 96.7594 35.2031 96.9156 35.4531C96.8219 35.6406 96.7281 35.8594 96.6344 36.1094C96.5406 36.3281 96.4 36.5156 96.2125 36.6719C95.7125 36.8906 95.4156 37.0781 95.3219 37.2344C95.2281 37.3906 95.0406 37.4688 94.7594 37.4688C94.6031 37.625 94.4313 37.7812 94.2438 37.9375C94.0563 38.125 93.8844 38.2969 93.7281 38.4531C93.5719 38.3906 93.4625 38.3125 93.4 38.2188C93.3375 38.125 93.2438 38 93.1188 37.8438C92.8063 37.75 92.525 37.5781 92.275 37.3281C92.025 37.1094 91.8063 36.8594 91.6188 36.5781C91.4313 36.2656 91.2438 35.9531 91.0563 35.6406C90.9 35.2969 90.7594 34.9844 90.6344 34.7031C90.1969 33.8906 89.7438 33.0781 89.275 32.2656C88.8375 31.4219 88.3844 30.5938 87.9156 29.7812C87.6656 29.375 87.4156 28.9688 87.1656 28.5625C86.9469 28.125 86.7125 27.6875 86.4625 27.25C86.4 27.1875 86.3375 27.125 86.275 27.0625C86.2125 26.9688 86.15 26.875 86.0875 26.7812C85.8688 26.4688 85.6969 26.125 85.5719 25.75C85.4781 25.3438 85.2594 25.0156 84.9156 24.7656C84.3219 24.7031 83.775 24.7969 83.275 25.0469C82.8063 25.2656 82.3844 25.5625 82.0094 25.9375C82.0406 26.1562 82.0563 26.3594 82.0563 26.5469C82.0563 26.7344 82.0563 26.9219 82.0563 27.1094C82.0563 27.8281 82.025 28.5156 81.9625 29.1719C81.9 29.8281 81.8688 30.5156 81.8688 31.2344C81.8688 31.5469 81.8844 31.875 81.9156 32.2188C81.9469 32.5312 81.9938 32.8438 82.0563 33.1562C81.9625 33.5 81.9156 33.875 81.9156 34.2812C81.9156 34.5 81.9313 34.7031 81.9625 34.8906C82.025 35.0781 82.0563 35.2812 82.0563 35.5C82.0563 35.8125 81.9469 36.0312 81.7281 36.1562C81.5406 36.25 81.4781 36.4375 81.5406 36.7188C81.1656 36.875 80.8063 37.0312 80.4625 37.1875C80.1188 37.3438 79.7594 37.4531 79.3844 37.5156C79.2281 37.5469 79.0719 37.5469 78.9156 37.5156C78.7594 37.5156 78.6188 37.5469 78.4938 37.6094C78.3375 37.6719 78.2125 37.7812 78.1188 37.9375C78.025 38.125 77.9 38.2188 77.7438 38.2188C77.5563 38.2188 77.4469 38.1406 77.4156 37.9844C77.3844 37.8594 77.3219 37.75 77.2281 37.6562C77.0719 37.5938 76.9469 37.5625 76.8531 37.5625C76.7594 37.5625 76.6656 37.5156 76.5719 37.4219C76.6031 37.1406 76.5406 36.9375 76.3844 36.8125C76.2281 36.6562 76.15 36.3594 76.15 35.9219C76.15 35.5781 76.1656 35.25 76.1969 34.9375C76.2594 34.625 76.2906 34.2969 76.2906 33.9531C76.2906 33.6719 76.2438 33.4219 76.15 33.2031C76.0875 32.9531 76.025 32.6875 75.9625 32.4062C75.9313 32.2812 75.9313 32.1562 75.9625 32.0312C75.9938 31.9062 76.0094 31.7812 76.0094 31.6562C76.0094 31.0938 75.9781 30.5312 75.9156 29.9688C75.8844 29.375 75.8688 28.7969 75.8688 28.2344C75.8688 28.0156 75.8688 27.8125 75.8688 27.625C75.8688 27.4375 75.8844 27.25 75.9156 27.0625C75.9781 26.875 76.025 26.7188 76.0563 26.5938C76.1188 26.4688 76.15 26.3125 76.15 26.125C76.15 25.5312 76.0875 24.9531 75.9625 24.3906C75.8375 23.7969 75.775 23.2188 75.775 22.6562C75.775 22.3438 75.775 22.0312 75.775 21.7188C75.8063 21.375 75.8219 21.0469 75.8219 20.7344C75.8219 19.8281 75.8063 18.9375 75.775 18.0625C75.7438 17.1875 75.7281 16.3125 75.7281 15.4375C75.7281 14.8125 75.7438 14.2031 75.775 13.6094C75.8063 12.9844 75.8219 12.3594 75.8219 11.7344C75.8219 10.9531 75.7906 10.1875 75.7281 9.4375C75.6656 8.65625 75.6344 7.85938 75.6344 7.04688C75.6344 6.76562 75.6188 6.57812 75.5875 6.48438C75.5563 6.39062 75.5094 6.34375 75.4469 6.34375C75.3844 6.3125 75.3063 6.29688 75.2125 6.29688C75.15 6.26562 75.0875 6.20312 75.025 6.10938C75.025 5.92188 75.1031 5.79688 75.2594 5.73438C75.4156 5.64062 75.4938 5.375 75.4938 4.9375C75.4938 4.6875 75.4625 4.4375 75.4 4.1875C75.3688 3.9375 75.3531 3.6875 75.3531 3.4375C75.3531 3.0625 75.4313 2.6875 75.5875 2.3125C75.7438 1.9375 75.8844 1.57813 76.0094 1.23438C76.3844 1.20313 76.6344 1.20313 76.7594 1.23438C76.9156 1.26562 77.0719 1.25 77.2281 1.1875C77.3219 1.53125 77.525 1.71875 77.8375 1.75C78.15 1.75 78.4313 1.78125 78.6813 1.84375C78.9625 1.875 79.2281 1.95313 79.4781 2.07812C79.7594 2.17188 80.025 2.21875 80.275 2.21875C80.3375 2.40625 80.4625 2.54688 80.65 2.64062C80.8688 2.70313 81.0875 2.76562 81.3063 2.82812C81.5563 2.79688 81.7438 2.6875 81.8688 2.5C82.025 2.3125 82.2281 2.21875 82.4781 2.21875C82.6656 2.21875 82.8844 2.35938 83.1344 2.64062C83.3844 2.89063 83.5719 3.09375 83.6969 3.25C83.8219 3.34375 84.0563 3.54688 84.4 3.85938C84.7438 4.17187 85.1188 4.5 85.525 4.84375C85.9313 5.15625 86.3063 5.46875 86.65 5.78125C86.9938 6.0625 87.2125 6.21875 87.3063 6.25C88.5875 7.53125 89.775 8.70312 90.8688 9.76562C91.9938 10.7969 93.2125 11.7344 94.525 12.5781C94.5563 12.6719 94.5875 12.75 94.6188 12.8125C94.6813 12.875 94.7438 12.9531 94.8063 13.0469C94.8063 13.2969 94.7594 13.4844 94.6656 13.6094C94.5719 13.7344 94.525 13.8906 94.525 14.0781C94.525 14.1719 94.5406 14.2656 94.5719 14.3594C94.6344 14.4531 94.6656 14.5469 94.6656 14.6406C94.6969 14.7656 94.6969 14.8906 94.6656 15.0156C94.6656 15.1094 94.6656 15.2188 94.6656 15.3438C94.6656 15.6562 94.7594 15.9375 94.9469 16.1875C95.1656 16.4375 95.275 16.7188 95.275 17.0312C95.2125 17.3125 95.0875 17.4844 94.9 17.5469C94.7125 17.6094 94.5563 17.6875 94.4313 17.7812C94.3688 17.8438 94.3063 17.9219 94.2438 18.0156C94.2125 18.1094 94.1656 18.1875 94.1031 18.25C93.4156 18.5625 92.9156 18.8594 92.6031 19.1406C92.2906 19.3906 91.9625 19.6406 91.6188 19.8906C91.525 19.9531 91.3688 20.0625 91.15 20.2188C90.9313 20.3438 90.7125 20.4844 90.4938 20.6406C90.275 20.7656 90.0719 20.9062 89.8844 21.0625C89.7281 21.2188 89.65 21.3438 89.65 21.4375C89.65 21.6562 89.775 21.9688 90.025 22.375C90.3063 22.75 90.5094 23.0469 90.6344 23.2656C90.9781 23.8281 91.2906 24.3906 91.5719 24.9531C91.8531 25.4844 92.1656 26.0156 92.5094 26.5469C93.1344 27.5156 93.7125 28.5 94.2438 29.5C94.8063 30.5 95.3531 31.5 95.8844 32.5ZM88.2438 15.0625C87.525 14.1562 86.7438 13.3438 85.9 12.625C85.0875 11.875 84.3063 11.0938 83.5563 10.2812L83.0406 10.1875C82.8531 9.875 82.6344 9.60938 82.3844 9.39062C82.1656 9.14062 81.9313 8.89062 81.6813 8.64062C81.7125 8.98438 81.7281 9.3125 81.7281 9.625C81.7281 9.9375 81.7281 10.2656 81.7281 10.6094C81.7281 11.6094 81.6969 12.5938 81.6344 13.5625C81.6031 14.5 81.5875 15.4531 81.5875 16.4219C81.5875 17.3906 81.6344 18.3125 81.7281 19.1875C82.3844 19.1875 82.9781 19 83.5094 18.625C83.7281 18.4688 83.9313 18.3125 84.1188 18.1562C84.3063 17.9688 84.5094 17.7969 84.7281 17.6406C84.9781 17.4844 85.2594 17.2969 85.5719 17.0781C85.9156 16.8594 86.2438 16.6406 86.5563 16.4219C86.9 16.2031 87.2125 15.9844 87.4938 15.7656C87.8063 15.5156 88.0563 15.2812 88.2438 15.0625ZM120.606 0.953125C120.856 0.953125 121.028 1.01563 121.122 1.14062C121.247 1.23438 121.341 1.35937 121.403 1.51562C121.716 1.48438 122.028 1.54687 122.341 1.70312C122.684 1.82812 122.887 1.95313 122.95 2.07812C123.2 2.10937 123.356 2.17188 123.419 2.26562C123.481 2.35938 123.575 2.42188 123.7 2.45312L124.216 2.40625C124.341 2.53125 124.575 2.65625 124.919 2.78125C125.294 2.90625 125.512 3.04687 125.575 3.20312C125.512 3.35938 125.481 3.53125 125.481 3.71875C125.512 3.875 125.528 4.0625 125.528 4.28125C125.434 4.75 125.278 5.17188 125.059 5.54688C124.872 5.92188 124.7 6.28125 124.544 6.625C124.45 6.78125 124.372 6.95312 124.309 7.14062C124.278 7.32812 124.231 7.5 124.169 7.65625C124.106 7.78125 124.044 7.90625 123.981 8.03125C123.95 8.125 123.903 8.23438 123.841 8.35938C123.841 8.51562 123.809 8.6875 123.747 8.875C123.684 9.03125 123.622 9.1875 123.559 9.34375C123.559 9.53125 123.544 9.67188 123.512 9.76562C123.481 9.82812 123.466 9.89062 123.466 9.95312C122.872 11.3906 122.403 12.7344 122.059 13.9844C121.716 15.2344 121.372 16.4844 121.028 17.7344C120.872 18.1094 120.716 18.5781 120.559 19.1406C120.403 19.7031 120.2 20.375 119.95 21.1562C119.731 21.9062 119.481 22.7188 119.2 23.5938C118.95 24.4375 118.7 25.2344 118.45 25.9844C118.231 26.7031 118.028 27.3281 117.841 27.8594C117.684 28.3594 117.591 28.6406 117.559 28.7031C117.466 29.2344 117.325 29.7812 117.137 30.3438C116.95 30.875 116.794 31.4375 116.669 32.0312C116.512 32.2188 116.419 32.4375 116.387 32.6875C116.356 32.9062 116.278 33.125 116.153 33.3438C115.903 33.3125 115.7 33.375 115.544 33.5312C115.512 33.7812 115.528 34.0156 115.591 34.2344C115.684 34.4531 115.731 34.6875 115.731 34.9375C115.606 35.2812 115.45 35.5 115.262 35.5938C115.075 35.6875 114.95 35.8438 114.887 36.0625C114.669 36 114.497 36.0312 114.372 36.1562C114.278 36.2812 114.169 36.3438 114.044 36.3438C113.669 36.25 113.45 36.3125 113.387 36.5312C113.2 36.4688 113.075 36.5 113.012 36.625C112.95 36.7188 112.887 36.7812 112.825 36.8125C112.575 36.8125 112.372 36.875 112.216 37C112.091 37.0938 111.934 37.1562 111.747 37.1875C111.622 37.125 111.497 37.0625 111.372 37C111.247 36.9062 111.137 36.8125 111.044 36.7188C110.856 36.1875 110.684 35.6719 110.528 35.1719C110.372 34.6406 110.216 34.1094 110.059 33.5781C109.997 33.3281 109.919 33.0938 109.825 32.875C109.731 32.6562 109.653 32.4219 109.591 32.1719C109.559 32.0156 109.544 31.8906 109.544 31.7969C109.544 31.6719 109.528 31.5469 109.497 31.4219C109.434 31.2656 109.372 31.1094 109.309 30.9531C109.247 30.7969 109.184 30.6406 109.122 30.4844C108.872 29.7969 108.684 29.0938 108.559 28.375C108.403 27.8438 108.247 27.3281 108.091 26.8281C107.966 26.2969 107.841 25.7656 107.716 25.2344C107.622 24.7969 107.512 24.3438 107.387 23.875C107.262 23.375 107.106 22.9375 106.919 22.5625C106.856 22.0625 106.716 21.5938 106.497 21.1562C106.309 20.6875 106.216 20.2188 106.216 19.75C106.059 19.25 105.919 18.75 105.794 18.25C105.7 17.75 105.575 17.25 105.419 16.75C105.356 16.5 105.278 16.2656 105.184 16.0469C105.091 15.8281 105.012 15.6094 104.95 15.3906C104.856 15.1094 104.778 14.8125 104.716 14.5C104.653 14.1875 104.591 13.875 104.528 13.5625C104.434 13.2812 104.341 13.0156 104.247 12.7656C104.153 12.4844 104.059 12.2031 103.966 11.9219C103.809 11.3906 103.653 10.875 103.497 10.375C103.372 9.84375 103.231 9.3125 103.075 8.78125C102.919 8.1875 102.762 7.60938 102.606 7.04688C102.481 6.45312 102.247 5.89062 101.903 5.35938C101.809 5.20312 101.731 5.03125 101.669 4.84375C101.637 4.625 101.575 4.42188 101.481 4.23438C101.544 3.98437 101.559 3.70312 101.528 3.39062C101.497 3.04687 101.544 2.78125 101.669 2.59375C101.981 2.59375 102.356 2.59375 102.794 2.59375C103.231 2.5625 103.559 2.57812 103.778 2.64062C103.903 2.60938 103.997 2.5625 104.059 2.5C104.153 2.4375 104.262 2.39062 104.387 2.35938C104.575 2.45312 104.762 2.5 104.95 2.5C105.231 2.5 105.45 2.4375 105.606 2.3125C105.95 2.46875 106.137 2.5 106.169 2.40625C106.2 2.3125 106.278 2.26562 106.403 2.26562C106.591 2.32813 106.731 2.46875 106.825 2.6875C106.919 2.875 107.012 3.04687 107.106 3.20312C107.45 3.82813 107.7 4.45312 107.856 5.07812C108.044 5.67188 108.231 6.3125 108.419 7C108.637 7.625 108.841 8.25 109.028 8.875C109.216 9.46875 109.387 10.0781 109.544 10.7031C109.637 11.0156 109.716 11.3281 109.778 11.6406C109.841 11.9531 109.903 12.2656 109.966 12.5781C110.059 12.9219 110.169 13.25 110.294 13.5625C110.419 13.8438 110.544 14.1562 110.669 14.5C110.731 14.8438 110.794 15.1875 110.856 15.5312C110.919 15.8438 110.997 16.1719 111.091 16.5156C111.153 16.7656 111.231 17 111.325 17.2188C111.419 17.4375 111.497 17.6719 111.559 17.9219C111.622 18.1719 111.684 18.4375 111.747 18.7188C111.809 18.9688 111.872 19.2188 111.934 19.4688C112.091 20.0938 112.262 20.7188 112.45 21.3438C112.637 21.9375 112.809 22.5469 112.966 23.1719C113.122 23.0781 113.216 22.9062 113.247 22.6562C113.278 22.4062 113.341 22.2031 113.434 22.0469C113.497 21.6719 113.591 21.2656 113.716 20.8281C113.872 20.3906 114.012 19.9844 114.137 19.6094C114.169 19.4531 114.2 19.3125 114.231 19.1875C114.294 19.0625 114.356 18.9219 114.419 18.7656C114.512 18.5781 114.575 18.3906 114.606 18.2031C114.637 17.9844 114.684 17.7656 114.747 17.5469C114.872 17.1094 114.997 16.6719 115.122 16.2344C115.278 15.7969 115.419 15.3594 115.544 14.9219C115.669 14.5156 115.778 14.0938 115.872 13.6562C115.966 13.2188 116.091 12.8125 116.247 12.4375C116.403 12.0938 116.528 11.7656 116.622 11.4531C116.747 11.1406 116.856 10.8125 116.95 10.4688C117.044 10.125 117.122 9.78125 117.184 9.4375C117.247 9.09375 117.356 8.78125 117.512 8.5C117.575 8.34375 117.637 8.17188 117.7 7.98438C117.794 7.76562 117.872 7.5625 117.934 7.375C118.091 6.875 118.231 6.375 118.356 5.875C118.481 5.375 118.653 4.875 118.872 4.375C119.028 3.9375 119.216 3.51562 119.434 3.10938C119.653 2.70313 119.841 2.28125 119.997 1.84375C120.122 1.53125 120.231 1.32812 120.325 1.23438C120.419 1.14062 120.512 1.04688 120.606 0.953125ZM140.125 24.7188C140.188 24.875 140.406 25.2031 140.781 25.7031C141.188 26.2031 141.641 26.75 142.141 27.3438C142.641 27.9375 143.109 28.5156 143.547 29.0781C144.016 29.6094 144.344 30 144.531 30.25C144.875 30.6875 145.203 31.125 145.516 31.5625C145.859 31.9688 146.172 32.4062 146.453 32.875L147.297 34.2812C147.547 34.5938 147.766 34.8594 147.953 35.0781C148.172 35.2969 148.344 35.5938 148.469 35.9688C148.531 36.2188 148.562 36.3906 148.562 36.4844C148.562 36.7031 148.484 36.8594 148.328 36.9531C148.078 36.9531 147.938 36.9844 147.906 37.0469C147.906 37.1406 147.844 37.2188 147.719 37.2812C147.594 37.3438 147.391 37.375 147.109 37.375C146.859 37.4062 146.656 37.4219 146.5 37.4219C146.219 37.4219 145.859 37.4062 145.422 37.375C145.016 37.375 144.688 37.4219 144.438 37.5156C144.375 37.5469 144.281 37.5938 144.156 37.6562C144.031 37.7188 143.938 37.75 143.875 37.75C143.625 37.75 143.438 37.7031 143.312 37.6094C143.219 37.5469 143.078 37.5 142.891 37.4688C142.641 37.1875 142.422 36.9062 142.234 36.625C142.078 36.3125 141.891 36 141.672 35.6875C141.453 35.4688 141.234 35.2812 141.016 35.125C140.797 34.9375 140.609 34.7344 140.453 34.5156C139.984 33.8281 139.5 33.1562 139 32.5C138.5 31.8438 137.984 31.2031 137.453 30.5781C137.203 30.2344 136.938 29.9219 136.656 29.6406C136.375 29.3594 136.109 29.0469 135.859 28.7031C135.609 28.3906 135.375 28.0625 135.156 27.7188C134.938 27.3438 134.719 26.9844 134.5 26.6406C134.312 26.3594 134.062 26 133.75 25.5625C133.438 25.0938 133.094 24.6406 132.719 24.2031C132.344 23.7344 131.969 23.2969 131.594 22.8906C131.219 22.4844 130.906 22.1719 130.656 21.9531C130.625 21.7656 130.547 21.625 130.422 21.5312C130.297 21.4062 130.156 21.2969 130 21.2031C129.938 21.0469 129.875 20.9062 129.812 20.7812C129.719 20.625 129.672 20.4688 129.672 20.3125C129.672 20.0938 129.719 19.8906 129.812 19.7031C129.875 19.5781 129.922 19.4688 129.953 19.375C129.953 19.25 129.984 19.125 130.047 19C130.203 18.6562 130.406 18.3281 130.656 18.0156C130.938 17.6719 131.156 17.3125 131.312 16.9375C131.375 16.8438 131.406 16.75 131.406 16.6562C131.406 16.5312 131.438 16.4219 131.5 16.3281C131.562 16.0781 131.688 15.875 131.875 15.7188C132.094 15.5312 132.266 15.3281 132.391 15.1094C132.547 14.8594 132.688 14.6094 132.812 14.3594C132.969 14.0781 133.125 13.7812 133.281 13.4688C133.75 12.6875 134.234 11.9375 134.734 11.2188C135.266 10.4688 135.797 9.71875 136.328 8.96875C136.734 8.34375 137.125 7.75 137.5 7.1875C137.906 6.59375 138.312 6 138.719 5.40625C138.938 5.125 139.172 4.79688 139.422 4.42188C139.672 4.04688 139.938 3.67188 140.219 3.29688C140.531 2.92188 140.844 2.57812 141.156 2.26562C141.469 1.95313 141.781 1.70312 142.094 1.51562C142.562 1.48438 142.875 1.59375 143.031 1.84375C143.188 2.0625 143.422 2.17188 143.734 2.17188C144.141 2.26562 144.406 2.39062 144.531 2.54688C144.656 2.70313 144.797 2.85937 144.953 3.01562C145.391 3.01562 145.734 3.09375 145.984 3.25C146.266 3.40625 146.531 3.64063 146.781 3.95312C146.688 4.29688 146.547 4.60938 146.359 4.89062C146.172 5.14062 146 5.40625 145.844 5.6875C145.594 5.8125 145.406 5.98438 145.281 6.20312C145.188 6.42188 145.031 6.59375 144.812 6.71875C144.5 7.25 144.172 7.76562 143.828 8.26562C143.484 8.73438 143.141 9.20312 142.797 9.67188C142.609 9.95312 142.406 10.2031 142.188 10.4219C142 10.6406 141.828 10.875 141.672 11.125C141.609 11.2188 141.547 11.3281 141.484 11.4531C141.453 11.5469 141.406 11.6406 141.344 11.7344C140.969 12.3281 140.562 12.8906 140.125 13.4219C139.688 13.9219 139.281 14.4844 138.906 15.1094C138.781 15.3281 138.672 15.5625 138.578 15.8125C138.516 16.0312 138.422 16.25 138.297 16.4688C138.172 16.6562 137.984 16.9062 137.734 17.2188C137.516 17.5312 137.297 17.875 137.078 18.25C136.859 18.5938 136.656 18.9375 136.469 19.2812C136.312 19.5938 136.234 19.8594 136.234 20.0781C136.266 20.2344 136.453 20.5469 136.797 21.0156C137.172 21.4531 137.578 21.9375 138.016 22.4688C138.484 22.9688 138.922 23.4531 139.328 23.9219C139.734 24.3594 140 24.625 140.125 24.7188ZM143.219 16.1875C143.438 16.6562 143.672 17.0625 143.922 17.4062C144.016 17.5312 144.125 17.6406 144.25 17.7344C144.375 17.8281 144.469 17.9531 144.531 18.1094C144.594 18.1719 144.656 18.3125 144.719 18.5312C144.781 18.7188 144.844 18.8594 144.906 18.9531C145 19.2031 145.188 19.4844 145.469 19.7969C145.75 20.1094 145.891 20.3906 145.891 20.6406C145.891 20.7969 145.859 20.9688 145.797 21.1562C145.734 21.3438 145.688 21.5156 145.656 21.6719C145.625 21.8594 145.609 22.0625 145.609 22.2812C145.609 22.4688 145.547 22.6406 145.422 22.7969C145.266 22.9531 145.094 23.0469 144.906 23.0781C144.719 23.1094 144.547 23.1875 144.391 23.3125C144.328 23.375 144.234 23.4844 144.109 23.6406C143.984 23.7969 143.859 23.9688 143.734 24.1562C143.609 24.3438 143.484 24.5312 143.359 24.7188C143.266 24.875 143.219 25 143.219 25.0938C142.844 25.125 142.594 25.1406 142.469 25.1406C142.375 25.1094 142.266 25.1094 142.141 25.1406C141.984 24.9844 141.812 24.8594 141.625 24.7656C141.469 24.6406 141.266 24.5312 141.016 24.4375C140.953 24.1875 140.812 23.9062 140.594 23.5938C140.375 23.25 140.188 22.9688 140.031 22.75L139.703 22.3281C139.234 21.6719 138.797 21.0469 138.391 20.4531C138.016 19.8281 137.734 19.1406 137.547 18.3906C138.141 17.9531 138.594 17.625 138.906 17.4062C139.25 17.1875 139.609 16.9844 139.984 16.7969C140.359 16.6094 140.719 16.4375 141.062 16.2812C141.438 16.0938 141.781 15.875 142.094 15.625C142.344 15.625 142.516 15.6406 142.609 15.6719C142.703 15.7031 142.766 15.7344 142.797 15.7656C142.828 15.7969 142.859 15.8594 142.891 15.9531C142.953 16.0156 143.062 16.0938 143.219 16.1875ZM165.128 2.45312C165.191 2.57812 165.253 2.67187 165.316 2.73438C165.409 2.76562 165.472 2.85937 165.503 3.01562C165.722 3.17188 165.894 3.29688 166.019 3.39062C166.144 3.45313 166.222 3.57812 166.253 3.76562C166.534 3.98437 166.691 4.125 166.722 4.1875C166.784 4.25 166.831 4.32812 166.863 4.42188C167.019 4.54687 167.159 4.65625 167.284 4.75C167.441 4.84375 167.55 4.98438 167.613 5.17188C167.863 5.39062 168.019 5.5625 168.081 5.6875C168.144 5.8125 168.191 5.95312 168.222 6.10938C168.097 6.32812 167.847 6.625 167.472 7C167.097 7.375 166.675 7.78125 166.206 8.21875C165.738 8.625 165.284 9.03125 164.847 9.4375C164.409 9.8125 164.066 10.1094 163.816 10.3281C163.753 10.4531 163.675 10.5625 163.581 10.6562C163.488 10.75 163.409 10.8594 163.347 10.9844C163.159 11.1406 162.988 11.3125 162.831 11.5C162.675 11.6562 162.488 11.7812 162.269 11.875C161.956 12.3125 161.519 12.75 160.956 13.1875C160.394 13.5938 160.019 14 159.831 14.4062C159.863 14.5 159.925 14.5938 160.019 14.6875C160.144 14.7812 160.238 14.8594 160.3 14.9219C160.55 15.1719 160.847 15.4062 161.191 15.625C161.534 15.8125 161.831 16.0312 162.081 16.2812C162.331 16.5 162.581 16.7188 162.831 16.9375C163.081 17.125 163.331 17.3281 163.581 17.5469C163.706 17.6719 163.863 17.8594 164.05 18.1094C164.363 18.3594 164.659 18.5938 164.941 18.8125C165.253 19 165.55 19.2188 165.831 19.4688C166.425 19.9688 167.003 20.4844 167.566 21.0156C168.128 21.5156 168.722 22.0156 169.347 22.5156L169.722 22.9375C169.722 23.1875 169.784 23.4844 169.909 23.8281C170.066 24.1406 170.206 24.4062 170.331 24.625C170.269 24.9375 170.269 25.1406 170.331 25.2344C170.425 25.2969 170.503 25.3594 170.566 25.4219C170.534 26.0156 170.55 26.4062 170.613 26.5938C170.081 27.0625 169.581 27.5 169.113 27.9062C168.675 28.2812 168.284 28.6562 167.941 29.0312C167.659 29.375 167.363 29.6875 167.05 29.9688C166.769 30.2188 166.456 30.5 166.113 30.8125C165.925 31.0625 165.769 31.2344 165.644 31.3281C165.425 31.5469 165.206 31.7188 164.988 31.8438C164.613 32.1875 164.238 32.5156 163.863 32.8281C163.519 33.1406 163.175 33.4531 162.831 33.7656C162.581 33.9844 162.347 34.2031 162.128 34.4219C161.909 34.6094 161.691 34.8281 161.472 35.0781C161.284 35.2656 161.066 35.4844 160.816 35.7344C160.597 35.9844 160.363 36.1875 160.113 36.3438C160.019 36.5312 159.894 36.7031 159.738 36.8594C159.581 36.9844 159.441 37.125 159.316 37.2812C159.097 37.4062 158.894 37.5312 158.706 37.6562C158.519 37.7812 158.3 37.9062 158.05 38.0312C157.8 37.8438 157.55 37.6719 157.3 37.5156C157.081 37.3594 156.831 37.25 156.55 37.1875C156.363 37.0312 156.222 36.875 156.128 36.7188C156.034 36.5625 155.863 36.4531 155.613 36.3906C155.55 36.2969 155.472 36.2031 155.378 36.1094C155.316 35.9844 155.253 35.8594 155.191 35.7344C154.816 35.7031 154.519 35.4688 154.3 35.0312C154.363 34.8438 154.441 34.7031 154.534 34.6094C154.659 34.5156 154.691 34.3438 154.628 34.0938C154.816 33.7812 155.034 33.5156 155.284 33.2969C155.566 33.0469 155.831 32.7969 156.081 32.5469C156.363 32.2969 156.613 32.0469 156.831 31.7969C157.081 31.5156 157.347 31.25 157.628 31C157.784 30.8438 157.941 30.7031 158.097 30.5781C158.253 30.4219 158.425 30.2656 158.613 30.1094C158.956 29.7656 159.3 29.4531 159.644 29.1719C160.019 28.8594 160.394 28.5312 160.769 28.1875C161.269 27.6875 161.784 27.2188 162.316 26.7812C162.847 26.3125 163.331 25.7969 163.769 25.2344C163.738 25.1094 163.691 25.0312 163.628 25C163.566 24.9375 163.519 24.8594 163.488 24.7656C162.988 24.2969 162.488 23.8438 161.988 23.4062C161.519 22.9375 161.003 22.5312 160.441 22.1875C160.253 22 160.128 21.8438 160.066 21.7188C159.503 21.3125 158.956 20.8594 158.425 20.3594C157.925 19.8594 157.363 19.4375 156.738 19.0938C156.613 18.9375 156.456 18.8125 156.269 18.7188C156.113 18.5938 155.956 18.4844 155.8 18.3906C155.706 18.2344 155.597 18.1094 155.472 18.0156C155.378 17.8906 155.253 17.7969 155.097 17.7344C154.847 17.5156 154.675 17.3438 154.581 17.2188C154.519 17.0625 154.394 16.9688 154.206 16.9375C154.144 16.7812 154.034 16.6562 153.878 16.5625C153.753 16.4688 153.613 16.3594 153.456 16.2344C153.394 16.0469 153.3 15.8906 153.175 15.7656C153.144 15.5156 153.159 15.3438 153.222 15.25C153.284 15.125 153.331 15.0312 153.363 14.9688C153.331 14.7812 153.253 14.6406 153.128 14.5469C152.972 14.4531 152.894 14.2969 152.894 14.0781C152.894 13.9531 152.941 13.875 153.034 13.8438C153.097 13.7812 153.144 13.7031 153.175 13.6094L153.316 12.9062C153.566 12.7188 153.769 12.5 153.925 12.25C154.113 11.9688 154.347 11.75 154.628 11.5938C154.941 11.125 155.331 10.7344 155.8 10.4219C155.956 10.1719 156.144 9.96875 156.363 9.8125C156.613 9.65625 156.816 9.45312 156.972 9.20312C157.222 9.04688 157.425 8.875 157.581 8.6875C157.769 8.5 157.988 8.32812 158.238 8.17188C158.3 8.04688 158.363 7.95312 158.425 7.89062C158.519 7.79688 158.581 7.70312 158.613 7.60938C159.456 6.79688 160.191 6.09375 160.816 5.5C161.472 4.90625 162.144 4.3125 162.831 3.71875C163.019 3.5625 163.206 3.39062 163.394 3.20312C163.581 3.01562 163.784 2.84375 164.003 2.6875C164.066 2.625 164.144 2.59375 164.238 2.59375C164.331 2.59375 164.425 2.5625 164.519 2.5C164.894 2.5 165.097 2.48437 165.128 2.45312ZM197.116 3.48438C197.053 3.60937 197.022 3.73438 197.022 3.85938C197.053 3.98437 197.069 4.125 197.069 4.28125C197.006 4.65625 197.006 4.84375 197.069 4.84375C197.131 4.84375 197.163 4.875 197.163 4.9375L196.834 5.40625C196.834 5.59375 196.788 5.76562 196.694 5.92188C196.631 6.07812 196.616 6.26562 196.647 6.48438C196.553 6.64062 196.459 6.79688 196.366 6.95312C196.303 7.10938 196.194 7.26562 196.038 7.42188H195.428C195.084 7.42188 194.709 7.45312 194.303 7.51562C193.928 7.54688 193.553 7.5625 193.178 7.5625C193.116 7.5625 193.038 7.5625 192.944 7.5625C192.85 7.53125 192.756 7.51562 192.663 7.51562C192.6 7.51562 192.522 7.53125 192.428 7.5625C192.334 7.5625 192.225 7.5625 192.1 7.5625C191.631 7.5625 191.163 7.54688 190.694 7.51562C190.256 7.45312 189.788 7.42188 189.288 7.42188C189.163 7.42188 189.038 7.42188 188.913 7.42188C188.788 7.42188 188.647 7.4375 188.491 7.46875C188.459 8 188.428 8.54688 188.397 9.10938C188.397 9.64062 188.397 10.1875 188.397 10.75C188.397 10.9062 188.381 11.0781 188.35 11.2656C188.319 11.4219 188.303 11.5781 188.303 11.7344C188.272 12.1406 188.241 12.5312 188.209 12.9062C188.209 13.2812 188.209 13.6719 188.209 14.0781C188.209 14.9531 188.209 15.8281 188.209 16.7031C188.241 17.5781 188.272 18.4688 188.303 19.375C188.334 19.8438 188.366 20.2969 188.397 20.7344C188.428 21.1719 188.444 21.625 188.444 22.0938C188.444 23.1562 188.428 24.2188 188.397 25.2812C188.366 26.3125 188.35 27.3594 188.35 28.4219C188.35 28.7656 188.334 29.0938 188.303 29.4062C188.272 29.6875 188.256 30 188.256 30.3438C188.256 31.0625 188.272 31.7812 188.303 32.5C188.334 33.2188 188.35 33.9375 188.35 34.6562C188.35 35 188.334 35.3438 188.303 35.6875C188.303 36.0312 188.303 36.375 188.303 36.7188C188.147 36.9688 188.038 37.1875 187.975 37.375C187.913 37.5625 187.725 37.6562 187.413 37.6562C187.194 37.5938 187.084 37.5156 187.084 37.4219C187.116 37.3594 187.1 37.2969 187.038 37.2344C186.756 37.2031 186.538 37.2188 186.381 37.2812C186.256 37.375 186.1 37.4531 185.913 37.5156C185.819 37.4844 185.709 37.4688 185.584 37.4688C185.491 37.4688 185.397 37.4688 185.303 37.4688C185.241 37.4688 185.178 37.4844 185.116 37.5156C185.053 37.5781 184.913 37.6094 184.694 37.6094C184.506 37.6406 184.397 37.6094 184.366 37.5156C184.334 37.4219 184.241 37.375 184.084 37.375C183.928 37.4688 183.741 37.5312 183.522 37.5625C183.334 37.625 183.147 37.6562 182.959 37.6562C182.772 37.5312 182.678 37.4062 182.678 37.2812C182.709 37.1875 182.694 37.0781 182.631 36.9531C182.6 36.8906 182.538 36.8125 182.444 36.7188C182.381 36.5938 182.319 36.5 182.256 36.4375C182.319 36 182.366 35.6094 182.397 35.2656C182.428 34.9219 182.444 34.5469 182.444 34.1406C182.444 33.3281 182.413 32.5312 182.35 31.75C182.288 30.9688 182.256 30.1719 182.256 29.3594C182.256 29.1094 182.288 28.8438 182.35 28.5625C182.413 28.2812 182.444 27.9844 182.444 27.6719C182.381 27.4219 182.366 27.2812 182.397 27.25C182.428 27.1875 182.444 27.125 182.444 27.0625C182.444 26.875 182.428 26.6875 182.397 26.5C182.397 26.3125 182.397 26.125 182.397 25.9375C182.397 25.5625 182.397 25.1875 182.397 24.8125C182.428 24.4375 182.444 24.0625 182.444 23.6875C182.444 23.5312 182.428 23.375 182.397 23.2188C182.397 23.0312 182.397 22.8594 182.397 22.7031C182.366 22.4219 182.35 22.125 182.35 21.8125C182.381 21.5 182.397 21.1875 182.397 20.875C182.397 19.375 182.366 17.8906 182.303 16.4219C182.272 14.9531 182.256 13.4688 182.256 11.9688C182.256 11.2188 182.288 10.4844 182.35 9.76562C182.444 9.01562 182.491 8.26562 182.491 7.51562C182.491 7.42188 182.459 7.29688 182.397 7.14062C182.334 6.98438 182.272 6.875 182.209 6.8125C182.053 6.8125 181.897 6.8125 181.741 6.8125C181.616 6.78125 181.475 6.76562 181.319 6.76562C180.975 6.76562 180.647 6.8125 180.334 6.90625C179.741 6.9375 179.163 6.98438 178.6 7.04688C178.069 7.07812 177.522 7.10938 176.959 7.14062C176.584 7.10938 176.35 7.10938 176.256 7.14062C176.194 7.14062 176.116 7.14062 176.022 7.14062C175.772 7.14062 175.584 7.07812 175.459 6.95312V6.34375C175.272 5.96875 175.194 5.76562 175.225 5.73438C175.256 5.70312 175.272 5.65625 175.272 5.59375C175.272 5.5 175.194 5.40625 175.038 5.3125C174.85 5.1875 174.756 5 174.756 4.75C174.725 4.5 174.663 4.3125 174.569 4.1875C174.475 4.0625 174.428 3.9375 174.428 3.8125C174.428 3.59375 174.475 3.34375 174.569 3.0625C174.85 2.90625 175.116 2.79688 175.366 2.73438C175.647 2.67187 175.959 2.59375 176.303 2.5C176.491 2.4375 176.663 2.375 176.819 2.3125C176.975 2.25 177.147 2.20312 177.334 2.17188C177.553 2.14063 177.772 2.125 177.991 2.125C178.209 2.125 178.428 2.10937 178.647 2.07812C179.116 1.98438 179.6 1.90625 180.1 1.84375C180.631 1.78125 181.131 1.75 181.6 1.75C182.038 1.75 182.475 1.8125 182.913 1.9375C183.35 2.03125 183.741 2.07812 184.084 2.07812C184.584 2.07812 185.053 2.10937 185.491 2.17188C185.959 2.23438 186.444 2.26562 186.944 2.26562C187.006 2.26562 187.1 2.29687 187.225 2.35938C187.381 2.39062 187.553 2.40625 187.741 2.40625H192.288C192.538 2.46875 192.709 2.48437 192.803 2.45312C192.928 2.42188 193.038 2.40625 193.131 2.40625C193.381 2.40625 193.616 2.42188 193.834 2.45312C194.053 2.48437 194.288 2.5 194.538 2.5C194.756 2.5 194.928 2.48437 195.053 2.45312C195.303 2.48437 195.538 2.5625 195.756 2.6875C195.975 2.78125 196.225 2.82812 196.506 2.82812C196.631 2.92188 196.725 3.04687 196.788 3.20312C196.85 3.32812 196.959 3.42187 197.116 3.48438Z" fill="#333333"/>
</svg>
